<svg width="180" height="180" viewBox="0 0 180 180" fill="none" xmlns="http://www.w3.org/2000/svg">
<rect x="180" y="180" width="180" height="180" rx="50" transform="rotate(180 180 180)" fill="#1B73E8"/>
<g clip-path="url(#clip0_1518_49)">
<path fill-rule="evenodd" clip-rule="evenodd" d="M53.3333 140C45.9695 140 40 134.03 40 126.667V53.3333C40 45.9695 45.9695 40 53.3333 40H73.3333C80.6972 40 86.6667 45.9695 86.6667 53.3333V126.667C86.6667 134.03 80.6972 140 73.3333 140H53.3333ZM46.6667 126.667C46.6667 130.348 49.6514 133.333 53.3333 133.333H73.3333C77.0152 133.333 80 130.348 80 126.667V53.3333C80 49.6514 77.0152 46.6667 73.3333 46.6667H53.3333C49.6514 46.6667 46.6667 49.6514 46.6667 53.3333H50C51.841 53.3333 53.3333 54.8257 53.3333 56.6667C53.3333 58.5077 51.841 60 50 60H46.6667V70H58.3333C60.1743 70 61.6667 71.4923 61.6667 73.3333C61.6667 75.1743 60.1743 76.6667 58.3333 76.6667H46.6667V86.6667H50C51.841 86.6667 53.3333 88.159 53.3333 90C53.3333 91.841 51.841 93.3333 50 93.3333H46.6667V103.333H58.3333C60.1743 103.333 61.6667 104.826 61.6667 106.667C61.6667 108.508 60.1743 110 58.3333 110H46.6667V120H50C51.841 120 53.3333 121.492 53.3333 123.333C53.3333 125.174 51.841 126.667 50 126.667H46.6667Z" fill="white"/>
<path fill-rule="evenodd" clip-rule="evenodd" d="M132.013 44.5986C130.182 41.7369 127.023 40 123.624 40H99.9677C94.4475 40 90 44.4924 90 50V60C90 65.5075 94.4475 70 99.9677 70H105.351V94.306C100.482 96.2885 97.0577 101.084 97.0577 106.667V126.667C97.0577 134.015 102.99 140 110.343 140H116.977C124.329 140 130.262 134.015 130.262 126.667V106.667C130.262 101.084 126.838 96.2885 121.969 94.306V70H130.022C137.933 70 142.652 61.2295 138.41 54.5987L132.013 44.5986ZM123.624 46.6667C124.74 46.6667 125.786 47.2367 126.397 48.1913L132.794 58.1913C134.229 60.4338 132.607 63.3333 130.022 63.3333H99.9677C98.1598 63.3333 96.6667 61.8562 96.6667 60V50C96.6667 48.1438 98.1598 46.6667 99.9677 46.6667H123.624ZM115.302 70V93.3333H112.017V70H115.302ZM116.977 100C120.617 100 123.595 102.969 123.595 106.667V126.667C123.595 130.364 120.617 133.333 116.977 133.333H110.343C106.703 133.333 103.724 130.364 103.724 126.667V106.667C103.724 102.969 106.703 100 110.343 100H116.977Z" fill="white"/>
</g>
<defs>
<clipPath id="clip0_1518_49">
<rect width="100" height="100" fill="white" transform="translate(40 40)"/>
</clipPath>
</defs>
</svg>
