<svg width="180" height="180" viewBox="0 0 180 180" fill="none" xmlns="http://www.w3.org/2000/svg">
<rect x="180" y="180" width="180" height="180" rx="40" transform="rotate(180 180 180)" fill="#FF5C29"/>
<path d="M123.378 76.2869L69.6774 130.29C68.9878 130.984 68.0535 131.374 67.0797 131.374L45.9781 131.4C43.947 131.4 42.3 129.744 42.3 127.701L42.3263 106.481C42.3279 105.501 42.7154 104.562 43.4034 103.87L97.1043 49.8665C98.4836 48.4794 100.356 47.7 102.306 47.7C104.255 47.7 106.127 48.4794 107.507 49.8665L123.378 65.8312C124.756 67.2183 125.53 69.0975 125.53 71.0591C125.53 73.0192 124.756 74.8999 123.378 76.2869ZM132.184 120.301H92.5803C89.5327 120.301 87.0631 122.785 87.0631 125.85C87.0631 128.914 89.5327 131.398 92.5803 131.398H132.183C135.23 131.398 137.7 128.914 137.7 125.85C137.7 122.785 135.232 120.301 132.184 120.301Z" fill="white"/>
</svg>
